<svg xmlns="http://www.w3.org/2000/svg" xmlns:xlink="http://www.w3.org/1999/xlink" width="500" zoomAndPan="magnify" viewBox="0 0 375 374.999991" height="500" preserveAspectRatio="xMidYMid meet" version="1.0"><defs><clipPath id="0b51ad6d00"><path d="M 154 82.078125 L 285 82.078125 L 285 214 L 154 214 Z M 154 82.078125 " clip-rule="nonzero"/></clipPath><clipPath id="540cfbca0c"><path d="M 96.277344 109 L 258 109 L 258 271.828125 L 96.277344 271.828125 Z M 96.277344 109 " clip-rule="nonzero"/></clipPath></defs><g clip-path="url(#0b51ad6d00)"><path fill="#7ed957" d="M 242.628906 85.605469 C 246.132812 82.097656 251.824219 82.097656 255.328125 85.605469 L 282.277344 112.554688 C 285.785156 116.0625 285.785156 121.75 282.277344 125.257812 L 201.4375 206.097656 C 200.0625 207.472656 198.277344 208.363281 196.355469 208.636719 L 164.917969 213.128906 C 162.117188 213.53125 159.292969 212.589844 157.296875 210.589844 C 155.296875 208.589844 154.355469 205.765625 154.753906 202.96875 L 159.246094 171.527344 C 159.519531 169.605469 160.410156 167.820312 161.785156 166.449219 Z M 176.605469 177.035156 L 174.230469 193.652344 L 190.851562 191.277344 L 263.222656 118.90625 L 248.980469 104.660156 Z M 176.605469 177.035156 " fill-opacity="1" fill-rule="evenodd"/></g><g clip-path="url(#540cfbca0c)"><path fill="#7ed957" d="M 127.71875 127.886719 C 120.277344 127.886719 114.242188 133.917969 114.242188 141.359375 L 114.242188 240.167969 C 114.242188 247.609375 120.277344 253.640625 127.71875 253.640625 L 226.523438 253.640625 C 233.964844 253.640625 239.996094 247.609375 239.996094 240.167969 L 239.996094 172.800781 L 257.960938 172.800781 L 257.960938 240.167969 C 257.960938 257.53125 243.886719 271.605469 226.523438 271.605469 L 127.71875 271.605469 C 110.355469 271.605469 96.277344 257.53125 96.277344 240.167969 L 96.277344 141.359375 C 96.277344 124 110.355469 109.921875 127.71875 109.921875 L 195.085938 109.921875 L 195.085938 127.886719 Z M 127.71875 127.886719 " fill-opacity="1" fill-rule="evenodd"/></g></svg>