<svg xmlns="http://www.w3.org/2000/svg" xmlns:xlink="http://www.w3.org/1999/xlink" width="500" zoomAndPan="magnify" viewBox="0 0 375 374.999991" height="500" preserveAspectRatio="xMidYMid meet" version="1.0"><path fill="#ff3131" d="M 116.171875 58.890625 L 195.027344 137.742188 L 273.878906 58.890625 C 301.476562 31.289062 342.875 72.6875 315.277344 100.285156 L 236.425781 179.140625 L 315.277344 257.992188 C 342.875 285.59375 301.476562 326.988281 273.878906 299.390625 L 195.027344 220.539062 L 116.171875 299.390625 C 88.574219 326.988281 47.175781 285.59375 74.773438 257.992188 L 153.628906 179.140625 L 74.773438 100.285156 C 47.175781 72.6875 88.574219 31.289062 116.171875 58.890625 Z M 116.171875 58.890625 " fill-opacity="1" fill-rule="evenodd"/><path fill="#ff3131" d="M 116.171875 58.890625 L 195.027344 137.742188 L 273.878906 58.890625 C 301.476562 31.289062 342.875 72.6875 315.277344 100.285156 L 236.425781 179.140625 L 315.277344 257.992188 C 342.875 285.59375 301.476562 326.988281 273.878906 299.390625 L 195.027344 220.539062 L 116.171875 299.390625 C 88.574219 326.988281 47.175781 285.59375 74.773438 257.992188 L 153.628906 179.140625 L 74.773438 100.285156 C 47.175781 72.6875 88.574219 31.289062 116.171875 58.890625 Z M 116.171875 58.890625 " fill-opacity="1" fill-rule="evenodd"/></svg>